<svg width="21" height="21" viewBox="0 0 21 21" fill="none" xmlns="http://www.w3.org/2000/svg">
<g id="edit-01">
<path id="Icon" d="M3.29725 15.8443C3.33554 15.4998 3.35468 15.3275 3.40681 15.1664C3.45307 15.0236 3.51841 14.8876 3.60108 14.7622C3.69427 14.6209 3.81684 14.4984 4.06199 14.2532L15.0672 3.24797C15.9877 2.3275 17.4801 2.3275 18.4006 3.24797C19.321 4.16845 19.321 5.66083 18.4006 6.58131L7.39533 17.5865C7.15017 17.8317 7.0276 17.9543 6.88629 18.0474C6.76093 18.1301 6.62496 18.1955 6.48209 18.2417C6.32106 18.2938 6.14877 18.313 5.80419 18.3513L2.98389 18.6646L3.29725 15.8443Z" stroke="#475467" stroke-width="1.66667" stroke-linecap="round" stroke-linejoin="round"/>
</g>
</svg>
